<svg width="0" height="0" class="hidden">
  

  <symbol  xmlns="http://www.w3.org/2000/svg" viewBox="0 0 24 24" id="home">
    <path fill-rule="evenodd" clip-rule="evenodd" d="M15 19v-4h4l.001 4H15zm4-6h-4c-1.103 0-2 .897-2 2v4c0 1.103.897 2 2 2h4c1.103 0 2-.897 2-2v-4c0-1.103-.897-2-2-2zM5 19v-4h4l.001 4H5zm4-6H5c-1.103 0-2 .897-2 2v4c0 1.103.897 2 2 2h4c1.103 0 2-.897 2-2v-4c0-1.103-.897-2-2-2zm6-4V5h4l.001 4H15zm4-6h-4c-1.103 0-2 .897-2 2v4c0 1.103.897 2 2 2h4c1.103 0 2-.897 2-2V5c0-1.103-.897-2-2-2zM5 9V5h4l.001 4H5zm4-6H5c-1.103 0-2 .897-2 2v4c0 1.103.897 2 2 2h4c1.103 0 2-.897 2-2V5c0-1.103-.897-2-2-2z" ></path>
  </symbol>

  
  <symbol  xmlns="http://www.w3.org/2000/svg" viewBox="0 0 24 24" id="chat">
   <path d="M9.875 11a1.125 1.125 0 102.25 0 1.125 1.125 0 00-2.25 0zm4.688 0a1.125 1.125 0 102.25 0 1.125 1.125 0 00-2.25 0zm-9.375 0a1.125 1.125 0 102.25 0 1.125 1.125 0 00-2.25 0zm15.497-4.069A10.503 10.503 0 0011 .5h-.047A10.475 10.475 0 00.5 11.05a10.533 10.533 0 001.125 4.684v3.563a1.078 1.078 0 001.078 1.078h3.565a10.533 10.533 0 004.685 1.125h.05c1.403 0 2.765-.272 4.047-.804a10.417 10.417 0 003.347-2.231 10.475 10.475 0 003.103-7.418 10.46 10.46 0 00-.815-4.116zm-3.542 10.266A8.673 8.673 0 0111 19.719h-.04a8.75 8.75 0 01-4.057-1.02l-.197-.105h-3.3v-3.3l-.105-.197a8.75 8.75 0 01-1.02-4.057 8.665 8.665 0 012.522-6.183 8.653 8.653 0 016.16-2.576h.04c1.171 0 2.308.228 3.38.678a8.664 8.664 0 012.788 1.875 8.683 8.683 0 012.552 6.206 8.685 8.685 0 01-2.58 6.157z" > </path>
  </symbol>

  <symbol  xmlns="http://www.w3.org/2000/svg" viewBox="0 0 24 24" id="contact">
    <path fill-rule="evenodd" clip-rule="evenodd" d="M14 7c0-1.103-.897-2-2-2s-2 .897-2 2 .897 2 2 2 2-.897 2-2zm2 0c0 2.206-1.794 4-4 4S8 9.206 8 7s1.794-4 4-4 4 1.794 4 4zM5 20c0-3.86 3.141-7 7-7s7 3.14 7 7a1 1 0 11-2 0c0-2.757-2.243-5-5-5s-5 2.243-5 5a1 1 0 11-2 0z" ></path>
 
  </symbol>

  <symbol  xmlns="http://www.w3.org/2000/svg" viewBox="0 0 24 24" id="notifications">
    <path fill-rule="evenodd" clip-rule="evenodd" d="M5.515 16l1.18-1.182c.378-.378.586-.88.586-1.414V8.727c0-1.357.59-2.654 1.62-3.556a4.66 4.66 0 013.737-1.129c2.327.309 4.082 2.413 4.082 4.895v4.467c0 .534.208 1.036.585 1.413L18.485 16H5.516zM14 18.341C14 19.24 13.084 20 12 20s-2-.76-2-1.659V18h4v.341zm6.52-3.133l-1.8-1.804V8.937c0-3.481-2.502-6.438-5.82-6.877a6.722 6.722 0 00-5.317 1.607 6.728 6.728 0 00-2.302 5.06l-.001 4.677-1.801 1.804a1.631 1.631 0 00-.354 1.782c.255.614.848 1.01 1.512 1.01H8v.341C8 20.359 9.794 22 12 22s4-1.641 4-3.659V18h3.363c.664 0 1.256-.396 1.51-1.009a1.63 1.63 0 00-.352-1.783z" ></path>
  </symbol>

  <symbol  xmlns="http://www.w3.org/2000/svg" viewBox="0 0 24 24" id="calendar">
    <path fill-rule="evenodd" clip-rule="evenodd" d="M7 16c0-.55.45-1 1-1s1 .45 1 1-.45 1-1 1-1-.45-1-1zm5-1h4c.55 0 1 .45 1 1s-.45 1-1 1h-4c-.55 0-1-.45-1-1s.45-1 1-1zm6 5H6c-.551 0-1-.449-1-1v-6h14v6c0 .551-.449 1-1 1zM6 6h1v1c0 .55.45 1 1 1s1-.45 1-1V6h6v1c0 .55.45 1 1 1s1-.45 1-1V6h1c.551 0 1 .449 1 1v4H5V7c0-.551.449-1 1-1zm12-2h-1V3c0-.55-.45-1-1-1s-1 .45-1 1v1H9V3c0-.55-.45-1-1-1s-1 .45-1 1v1H6C4.346 4 3 5.346 3 7v12c0 1.654 1.346 3 3 3h12c1.654 0 3-1.346 3-3V7c0-1.654-1.346-3-3-3z" ></path>
  </symbol>

  <symbol  xmlns="http://www.w3.org/2000/svg" viewBox="0 0 24 24" id="settings">
    <path fill-rule="evenodd" clip-rule="evenodd" d="M11.374 20h1.252v-.767c0-.935.575-1.775 1.463-2.142.92-.383 1.926-.195 2.588.471l.538.541.889-.888-.546-.544c-.663-.662-.85-1.666-.477-2.557l.002-.002.01-.028a2.324 2.324 0 012.14-1.459H20v-1.25h-.767c-.934 0-1.776-.575-2.142-1.464-.385-.92-.196-1.925.47-2.588l.541-.539-.887-.887-.544.545c-.662.662-1.665.849-2.556.477-.914-.377-1.49-1.217-1.49-2.152V4h-1.25v.767c0 .935-.575 1.775-1.464 2.142-.92.385-1.924.196-2.587-.471l-.54-.541-.887.888.545.544c.662.662.85 1.666.477 2.557-.376.913-1.217 1.489-2.152 1.489H4v1.25h.767c.935 0 1.776.575 2.142 1.464.385.92.196 1.925-.47 2.588l-.541.539.887.887.545-.545c.662-.662 1.665-.849 2.556-.477.913.377 1.489 1.217 1.489 2.152V20zm1.569 2H11.05a1.678 1.678 0 01-1.675-1.676v-1.091c0-.147-.117-.248-.227-.293-.144-.059-.298-.071-.404.032l-.77.771a1.683 1.683 0 01-2.377 0l-1.34-1.34a1.67 1.67 0 01-.492-1.19c0-.449.176-.871.495-1.189l.768-.765c.105-.105.094-.259.047-.37-.06-.147-.16-.264-.308-.264H3.683A1.684 1.684 0 012 12.943v-1.892c0-.925.752-1.676 1.677-1.676h1.09c.147 0 .248-.118.293-.228.06-.144.072-.299-.032-.403l-.771-.77a1.685 1.685 0 010-2.377l1.34-1.34a1.667 1.667 0 011.188-.492h.002c.449 0 .872.175 1.189.494l.765.769c.105.106.26.094.37.047.147-.061.264-.161.264-.308V3.683c0-.928.755-1.683 1.682-1.683h1.893c.924 0 1.676.752 1.676 1.676v1.091c0 .147.117.248.226.293.146.06.3.073.405-.032l.77-.771a1.683 1.683 0 012.377 0l1.34 1.341c.319.317.492.739.491 1.189 0 .448-.174.871-.494 1.188l-.768.766c-.105.105-.095.259-.047.37.06.147.16.264.308.264h1.083c.928 0 1.683.754 1.683 1.682v1.892c0 .925-.752 1.676-1.677 1.676h-1.09c-.146 0-.248.118-.293.228l-.014.033c-.045.111-.057.266.047.37l.77.77a1.685 1.685 0 010 2.377l-1.34 1.34a1.667 1.667 0 01-1.188.492h-.002c-.448 0-.872-.175-1.189-.494l-.765-.769c-.104-.105-.26-.093-.37-.047-.146.061-.263.161-.263.308v1.084c0 .928-.755 1.683-1.683 1.683zM12 10.5c-.827 0-1.5.673-1.5 1.5s.673 1.5 1.5 1.5 1.5-.673 1.5-1.5-.673-1.5-1.5-1.5zm0 5c-1.93 0-3.5-1.57-3.5-3.5s1.57-3.5 3.5-3.5 3.5 1.57 3.5 3.5-1.57 3.5-3.5 3.5z" ></path>   
  </symbol>
 
  <symbol xmlns="http://www.w3.org/2000/svg" viewBox="0 0 24 24" id="logout">
    <path fill-rule="evenodd" clip-rule="evenodd" d="M13 12a1 1 0 11-2 0V2a1 1 0 112 0v10zm2.239-8.459a1 1 0 011.347-.43A9.973 9.973 0 0122 12.001c0 5.512-4.486 10-10 10S2 17.512 2 12a9.972 9.972 0 015.415-8.89 1 1 0 01.918 1.777A7.977 7.977 0 004 12c0 4.411 3.589 8 8 8 4.41 0 8-3.589 8-8a7.978 7.978 0 00-4.332-7.112.999.999 0 01-.43-1.347z" ></path>
  </symbol>
  
  </svg>